<svg xmlns="http://www.w3.org/2000/svg" viewBox="0 0 1200 360" role="img" aria-labelledby="lc-hero-title lc-hero-desc">
  <title id="lc-hero-title">linkedin-chrome-copilot: macOS Chrome copilot plugin for Claude Code</title>
  <desc id="lc-hero-desc">Catppuccin Mocha card. Left panel shows the wordmark lc in mauve over a monospaced tagline. Right panel shows an abstract briefcase outline crossed by conversation-thread lines anchoring a chat-bubble glyph in the upper area.</desc>
  <rect width="1200" height="360" fill="#1e1e2e"/>
  <rect x="0" y="0" width="1200" height="3" fill="#cba6f7"/>
  <g font-family="ui-serif,Georgia,'Iowan Old Style','Apple Garamond',serif" fill="#cdd6f4">
    <text x="72" y="170" font-size="120" font-weight="700" letter-spacing="-4">lc</text>
  </g>
  <g font-family="ui-monospace,'JetBrains Mono','Fira Code',Menlo,monospace" fill="#a6adc8">
    <text x="76" y="218" font-size="20">macOS chrome copilot plugin</text>
    <text x="76" y="246" font-size="20">delegating chrome I/O to mac-chrome</text>
  </g>
  <g font-family="ui-monospace,'JetBrains Mono','Fira Code',Menlo,monospace" fill="#6c7086">
    <text x="76" y="296" font-size="14">brew install yolo-labz/tap/linkedin-chrome-copilot</text>
  </g>
  <g transform="translate(720,72)" fill="none" stroke-linecap="round" stroke-linejoin="round">
    <g transform="translate(40,108)">
      <rect x="0" y="20" width="240" height="140" rx="8" fill="#181825" stroke="#cba6f7" stroke-width="2.4"/>
      <path d="M88,20 V8 Q88,0 96,0 H144 Q152,0 152,8 V20" fill="none" stroke="#cba6f7" stroke-width="2.4"/>
      <line x1="0" y1="78" x2="240" y2="78" stroke="#cba6f7" stroke-width="1.4" opacity="0.55"/>
      <rect x="100" y="68" width="40" height="20" rx="3" fill="#1e1e2e" stroke="#cba6f7" stroke-width="1.4"/>
    </g>
    <path d="M0,40 L120,40 L150,72 L320,72" stroke="#89b4fa" stroke-width="2" opacity="0.9"/>
    <path d="M0,64 L100,64 L130,96 L320,96" stroke="#89b4fa" stroke-width="1.6" opacity="0.55"/>
    <path d="M0,88 L80,88 L110,120 L320,120" stroke="#89b4fa" stroke-width="1.2" opacity="0.35"/>
    <g transform="translate(280,8)">
      <path d="M0,28 Q0,0 28,0 H172 Q200,0 200,28 V72 Q200,100 172,100 H64 L32,128 V100 H28 Q0,100 0,72 Z" fill="#181825" stroke="#89b4fa" stroke-width="2.2"/>
      <circle cx="60" cy="50" r="4" fill="#89b4fa"/>
      <circle cx="100" cy="50" r="4" fill="#89b4fa"/>
      <circle cx="140" cy="50" r="4" fill="#89b4fa"/>
    </g>
  </g>
  <g font-family="ui-monospace,'JetBrains Mono','Fira Code',Menlo,monospace" fill="#585b70">
    <text x="1128" y="338" font-size="11" text-anchor="end">yolo-labz/linkedin-chrome-copilot</text>
  </g>
</svg>
